<svg width="75" height="71" viewBox="0 0 75 71" fill="none" xmlns="http://www.w3.org/2000/svg">
<path d="M29.476 67.0676C29.1773 67.2823 28.7947 67.4363 28.328 67.5296C27.8707 67.623 27.3993 67.6696 26.914 67.6696C26.326 67.6696 25.766 67.581 25.234 67.4036C24.7113 67.217 24.2493 66.923 23.848 66.5216C23.4467 66.111 23.1247 65.5836 22.882 64.9396C22.6487 64.2863 22.532 63.4976 22.532 62.5736C22.532 61.6123 22.6627 60.8096 22.924 60.1656C23.1947 59.5123 23.54 58.9896 23.96 58.5976C24.3893 58.1963 24.8653 57.9116 25.388 57.7436C25.9107 57.5663 26.4333 57.4776 26.956 57.4776C27.516 57.4776 27.9873 57.515 28.37 57.5896C28.762 57.6643 29.084 57.753 29.336 57.8556L28.958 59.4796C28.7433 59.377 28.4867 59.3023 28.188 59.2556C27.8987 59.209 27.544 59.1856 27.124 59.1856C26.3493 59.1856 25.724 59.461 25.248 60.0116C24.7813 60.5623 24.548 61.4163 24.548 62.5736C24.548 63.0776 24.604 63.5396 24.716 63.9596C24.828 64.3703 24.996 64.725 25.22 65.0236C25.4533 65.313 25.738 65.5416 26.074 65.7096C26.4193 65.8683 26.816 65.9476 27.264 65.9476C27.684 65.9476 28.0387 65.9056 28.328 65.8216C28.6173 65.7376 28.8693 65.6303 29.084 65.4996L29.476 67.0676ZM34.8751 65.3036H31.8651L31.1231 67.4736H29.2051L32.7331 57.6036H34.1471L37.6751 67.4736H35.6591L34.8751 65.3036ZM32.3551 63.7636H34.4551L33.7271 61.5796L33.4331 60.0396H33.3631L33.0691 61.5936L32.3551 63.7636ZM38.5216 57.7716C38.7363 57.7343 38.965 57.7016 39.2076 57.6736C39.4596 57.6363 39.707 57.6083 39.9496 57.5896C40.2016 57.571 40.4443 57.557 40.6776 57.5476C40.911 57.5383 41.1256 57.5336 41.3216 57.5336C41.779 57.5336 42.227 57.5756 42.6656 57.6596C43.1136 57.7436 43.5103 57.8883 43.8556 58.0936C44.2103 58.299 44.4903 58.5836 44.6956 58.9476C44.9103 59.3023 45.0176 59.7503 45.0176 60.2916C45.0176 61.0943 44.831 61.7476 44.4576 62.2516C44.0843 62.7556 43.585 63.1056 42.9596 63.3016L43.6456 63.7356L45.8856 67.4736H43.6736L41.4476 63.6376L40.4396 63.4556V67.4736H38.5216V57.7716ZM41.4616 59.2416C41.2656 59.2416 41.0696 59.2463 40.8736 59.2556C40.687 59.265 40.5423 59.2836 40.4396 59.3116V62.1536H41.2516C41.7836 62.1536 42.2083 62.0323 42.5256 61.7896C42.843 61.547 43.0016 61.1456 43.0016 60.5856C43.0016 60.1656 42.871 59.839 42.6096 59.6056C42.3483 59.363 41.9656 59.2416 41.4616 59.2416ZM46.9435 57.6736H52.7535V59.3816H48.8615V61.6636H52.4035V63.3716H48.8615V65.7656H52.8235V67.4736H46.9435V57.6736Z" fill="#3F9E37"/>
<path d="M9.67392 28.2827H12.5099V19.6421L18.9241 28.2827H22.1765L15.2917 19.0133L21.9856 9.82494H18.7331L12.5063 18.4002V9.82422H9.67031V18.3995L3.4435 9.82422H0.190995L6.88483 19.0126L0 28.2819H3.25251L9.66671 19.6414L9.67392 28.2827Z" fill="#003129"/>
<path d="M51.9976 22.8814H58.6099V28.2832H61.4443V15.0576H58.6084V20.2437H51.9961V15.0576H49.1602V28.2832H51.9961L51.9976 22.8814Z" fill="#003129"/>
<path d="M56.6738 33.6341H61.3751V44.2224H64.211V33.6341H68.912V30.9971H56.6738V33.6341Z" fill="#003129"/>
<path d="M32.2405 20.4374V28.2832H35.075V15.0576H34.3991L25.4502 22.8239V15.0576H22.6143V28.2832H23.2031L32.2405 20.4374Z" fill="#003129"/>
<path d="M22.0424 30.9971H21.3066L15.869 39.7695L10.4313 30.9971H9.69548V31.0253L7.24512 44.2247H10.0356L11.2724 37.3625L15.4452 44.2247H16.2891L20.462 37.3625L21.6987 44.2247H24.4878L22.0374 31.0253L22.0424 30.9971Z" fill="#003129"/>
<path d="M36.7144 32.2269C36.1168 31.6651 35.4113 31.226 34.6396 30.9354C33.8677 30.6445 33.0447 30.5082 32.2188 30.5338C30.3125 30.5338 28.4843 31.2793 27.1364 32.6066C25.7885 33.9339 25.0312 35.734 25.0312 37.6111C25.0312 39.4881 25.7885 41.2882 27.1364 42.6155C28.4843 43.9425 30.3125 44.6883 32.2188 44.6883C33.045 44.7169 33.8688 44.5817 34.6411 44.2908C35.4134 43.9999 36.1185 43.5594 36.7144 42.9952V44.2233H39.5504V30.9971H36.7144V32.2269ZM32.3419 42.0732C31.443 42.0845 30.5612 41.8322 29.8083 41.3488C29.0554 40.8653 28.4655 40.1722 28.1136 39.3578C27.7617 38.5434 27.6637 37.6442 27.8321 36.7747C28.0005 35.9052 28.4276 35.1047 29.0592 34.475C29.6908 33.8451 30.4982 33.4144 31.3792 33.2377C32.2598 33.061 33.1742 33.146 34.0056 33.4822C34.8374 33.8183 35.5487 34.3903 36.0491 35.1254C36.5498 35.8609 36.817 36.726 36.8167 37.6111C36.8205 38.1934 36.7077 38.7709 36.4847 39.3103C36.2618 39.8496 35.9331 40.3406 35.5177 40.7549C35.1019 41.1692 34.6077 41.499 34.0628 41.725C33.5176 41.9513 32.9328 42.0695 32.3413 42.0732H32.3419Z" fill="#003129"/>
<path d="M75.0001 23.6038C74.9995 22.3956 74.524 21.2345 73.6729 20.364C72.8222 19.4935 71.662 18.9811 70.4359 18.9344V18.9251H67.0234V15.0576H64.1875V18.9251V21.5622V25.6454V28.2824H70.4374V28.2732C71.6632 28.2261 72.823 27.7136 73.6735 26.8431C74.524 25.9726 74.9995 24.8118 75.0001 23.6038ZM70.0993 25.6454H67.0234V21.5622H70.1022C70.6522 21.5622 71.1795 21.7772 71.5683 22.1602C71.9573 22.543 72.1756 23.0623 72.1756 23.6038C72.1756 24.1453 71.9573 24.6646 71.5683 25.0474C71.1795 25.4303 70.6522 25.6454 70.1022 25.6454H70.0993Z" fill="#003129"/>
<path d="M49.6248 30.5341C48.7986 30.507 47.9751 30.6428 47.2031 30.9334C46.4312 31.2243 45.7257 31.6642 45.1289 32.2273V30.9977H42.293V50.6447H45.1289V42.9947C45.728 43.5548 46.4335 43.9927 47.2052 44.2833C47.9769 44.5739 48.7989 44.7114 49.6248 44.6881C51.5309 44.6881 53.359 43.9423 54.7069 42.615C56.0549 41.288 56.8122 39.4876 56.8122 37.6108C56.8122 35.7338 56.0549 33.9337 54.7069 32.6064C53.359 31.2791 51.5309 30.5336 49.6248 30.5336V30.5341ZM49.5015 42.0736C48.6026 42.0848 47.7208 41.8328 46.9679 41.3491C46.2149 40.8656 45.6249 40.1726 45.2731 39.3582C44.9212 38.5437 44.8233 37.6446 44.9915 36.7751C45.16 35.9056 45.5871 35.1053 46.2188 34.4754C46.8504 33.8455 47.6578 33.4148 48.5385 33.238C49.4194 33.0613 50.3338 33.1464 51.1652 33.4825C51.9967 33.8186 52.708 34.3909 53.2087 35.126C53.7091 35.8612 53.9763 36.7263 53.9763 37.6114C53.9839 38.7873 53.5166 39.9183 52.6772 40.7549C51.8382 41.5918 50.6959 42.0661 49.5015 42.0736Z" fill="#003129"/>
<path d="M47.3803 24.5634C47.3706 23.9305 47.1802 23.3131 46.8307 22.7818C46.4812 22.2506 45.9866 21.827 45.4042 21.5595C45.9131 21.254 46.335 20.8258 46.6294 20.3154C46.9238 19.805 47.0812 19.2291 47.087 18.6421C47.087 16.3308 44.9062 14.5972 41.97 14.5972C39.3878 14.5972 37.2617 16.1641 36.7889 17.919L39.3251 18.596C39.5217 17.8736 40.3895 17.1448 41.97 17.1448C43.5837 17.1448 44.3167 17.919 44.3167 18.7862C44.3167 19.6534 43.5837 20.2878 42.1162 20.2878H40.3771V22.8297H41.9694C43.5828 22.8297 44.6091 23.4073 44.6091 24.4186C44.6091 25.285 43.8764 26.2743 41.9694 26.2743C41.3085 26.3017 40.6575 26.1119 40.1182 25.7348C39.5791 25.3577 39.1827 24.8148 38.9914 24.1915L36.582 24.9962C36.926 26.1247 37.6435 27.1074 38.6202 27.7877C39.597 28.468 40.7771 28.8069 41.9721 28.7502C45.4927 28.7502 47.3803 26.727 47.3803 24.5634Z" fill="#003129"/>
<path d="M72.2962 30.6693C72.0738 30.6647 71.8529 30.7039 71.6464 30.7846C71.4395 30.8651 71.2515 30.9856 71.0924 31.1386C70.9336 31.292 70.8076 31.4748 70.7215 31.6766C70.6354 31.8784 70.5908 32.0949 70.5908 32.314C70.5908 32.5328 70.6354 32.7496 70.7215 32.9514C70.8076 33.1529 70.9336 33.336 71.0924 33.4891C71.2515 33.6422 71.4395 33.7627 71.6464 33.8434C71.8529 33.9238 72.0738 33.963 72.2962 33.9584C72.733 33.9495 73.149 33.7725 73.4549 33.4649C73.7607 33.1575 73.9321 32.7441 73.9321 32.314C73.9321 31.8836 73.7607 31.4705 73.4549 31.1629C73.149 30.8555 72.733 30.6782 72.2962 30.6693ZM72.2962 33.6497C72.0293 33.6497 71.7686 33.5718 71.5465 33.4259C71.3247 33.2801 71.1519 33.0725 71.0496 32.8298C70.9477 32.587 70.921 32.3198 70.9729 32.0623C71.025 31.8046 71.1533 31.5679 71.342 31.382C71.531 31.1963 71.7712 31.0697 72.0328 31.0184C72.2947 30.9671 72.566 30.9933 72.8124 31.094C73.0591 31.1946 73.2697 31.365 73.418 31.5832C73.5662 31.8017 73.6453 32.0586 73.6453 32.3212C73.6421 32.6724 73.4988 33.0082 73.2463 33.2559C72.994 33.5038 72.6527 33.6439 72.2962 33.6462V33.6497Z" fill="#003129"/>
<path d="M73.0617 31.95C73.0617 31.6698 72.8584 31.3901 72.3548 31.3901H71.6396V33.1974H72.0217V32.5176H72.2335L72.7295 33.1974H73.1684L72.6322 32.4773C72.755 32.4525 72.8651 32.3865 72.9436 32.2902C73.0222 32.1936 73.0638 32.0734 73.0617 31.95ZM72.2977 32.238H72.0211V31.6859H72.3056C72.5938 31.6859 72.6551 31.8281 72.6551 31.9664C72.6551 32.1423 72.5493 32.238 72.2977 32.238Z" fill="#003129"/>
<path d="M41.8457 11.6082C41.8457 11.6082 41.747 11.6912 41.3872 11.6912C41.0277 11.6912 40.8777 11.3286 40.8106 10.7807C40.6645 9.32362 40.595 7.86003 40.6032 6.39586C40.6032 4.28398 40.4541 1.68954 41.8565 1.55116C41.8996 1.30875 42.0303 1.08995 42.2248 0.935315C42.4193 0.780684 42.664 0.700715 42.9139 0.710234C43.8426 0.710234 43.6668 2.39634 43.6697 6.39586C43.6697 10.4408 43.2373 11.9658 42.6133 11.9658C41.989 11.9658 41.8457 11.6082 41.8457 11.6082Z" fill="#3F9E37"/>
<path d="M46.112 12.1137C45.8026 11.5765 46.2843 10.3218 48.338 8.30505C50.392 6.28826 51.5149 5.44022 52.0135 6.05904C52.107 6.1956 52.1583 6.35569 52.1621 6.52022C52.1656 6.68477 52.1211 6.84688 52.0338 6.98725C52.2163 7.13664 52.344 7.34061 52.3979 7.5681C52.4518 7.79559 52.4287 8.03415 52.3323 8.24757C52.015 9.05726 50.0261 10.2849 49.1114 11.3991C48.1968 12.5132 47.4761 13.4428 46.7152 13.0036C46.6127 12.9352 46.5356 12.836 46.4955 12.7208C46.4553 12.6056 46.4542 12.4807 46.4923 12.3649C46.3431 12.3199 46.2107 12.2325 46.112 12.1137Z" fill="#3F9E37"/>
<path d="M32.1379 6.51853C33.2442 5.17376 34.8356 7.51201 34.8356 7.51201C34.8356 7.51201 35.9093 7.74195 37.2209 9.64095C38.5326 11.5399 38.0931 12.2794 38.0931 12.2794C38.089 12.4236 38.0489 12.5645 37.9756 12.6895C37.9027 12.8146 37.799 12.9197 37.6745 12.9954C37.5327 13.0701 37.375 13.1107 37.2145 13.1138C37.054 13.1168 36.8949 13.0824 36.7504 13.0131C36.7504 13.0131 35.479 11.86 33.9447 10.3357C32.4104 8.81136 31.4079 7.40557 32.1379 6.51853Z" fill="#3F9E37"/>
</svg>
