<svg width="22" height="20" viewBox="0 0 22 20" fill="none" xmlns="http://www.w3.org/2000/svg">
<g clip-path="url(#clip0_211_3241)">
<path d="M20.7487 8.25825L17.2756 4.99992C17.1922 4.92181 17.093 4.85981 16.9836 4.81751C16.8742 4.7752 16.7569 4.75342 16.6385 4.75342C16.52 4.75342 16.4027 4.7752 16.2933 4.81751C16.184 4.85981 16.0847 4.92181 16.0013 4.99992C15.8341 5.15605 15.7403 5.36726 15.7403 5.58742C15.7403 5.80757 15.8341 6.01878 16.0013 6.17492L19.1962 9.16658H0.897436C0.659421 9.16658 0.431155 9.25438 0.262853 9.41066C0.094551 9.56694 0 9.7789 0 9.99992H0C0 10.2209 0.094551 10.4329 0.262853 10.5892C0.431155 10.7455 0.659421 10.8332 0.897436 10.8332H19.25L16.0013 13.8416C15.9172 13.9191 15.8504 14.0112 15.8048 14.1128C15.7593 14.2143 15.7358 14.3232 15.7358 14.4332C15.7358 14.5433 15.7593 14.6522 15.8048 14.7537C15.8504 14.8553 15.9172 14.9474 16.0013 15.0249C16.0847 15.103 16.184 15.165 16.2933 15.2073C16.4027 15.2496 16.52 15.2714 16.6385 15.2714C16.7569 15.2714 16.8742 15.2496 16.9836 15.2073C17.093 15.165 17.1922 15.103 17.2756 15.0249L20.7487 11.7916C21.2529 11.3228 21.5361 10.6874 21.5361 10.0249C21.5361 9.36241 21.2529 8.727 20.7487 8.25825Z" fill="white"/>
</g>
<defs>
<clipPath id="clip0_211_3241">
<rect width="21.5385" height="20" fill="white"/>
</clipPath>
</defs>
</svg>
