<svg width="24" height="24" viewBox="0 0 24 24" fill="none" xmlns="http://www.w3.org/2000/svg">
<g clip-path="url(#clip0_211_3244)">
<path d="M22.95 9.5997C22.7625 9.41223 22.5082 9.30691 22.243 9.30691C21.9779 9.30691 21.7236 9.41223 21.536 9.5997L10.644 20.5387C10.1797 21.003 9.62853 21.3714 9.02188 21.6227C8.41524 21.8741 7.76503 22.0035 7.10838 22.0035C5.78221 22.0036 4.51033 21.4769 3.57252 20.5392C2.63472 19.6015 2.10781 18.3297 2.10772 17.0035C2.10762 15.6774 2.63435 14.4055 3.57202 13.4677L14.121 2.8757C14.6851 2.32059 15.4457 2.01087 16.2371 2.014C17.0285 2.01712 17.7866 2.33285 18.3463 2.8924C18.906 3.45195 19.2219 4.20999 19.2252 5.0014C19.2285 5.79282 18.919 6.55348 18.364 7.1177L7.81502 17.7097C7.62477 17.892 7.37149 17.9937 7.10802 17.9937C6.84456 17.9937 6.59127 17.892 6.40102 17.7097C6.21355 17.5222 6.10824 17.2679 6.10824 17.0027C6.10824 16.7375 6.21355 16.4832 6.40102 16.2957L15.793 6.8607C15.9752 6.6721 16.076 6.41949 16.0737 6.1573C16.0714 5.8951 15.9662 5.64429 15.7808 5.45888C15.5954 5.27347 15.3446 5.1683 15.0824 5.16602C14.8202 5.16374 14.5676 5.26454 14.379 5.4467L4.98702 14.8817C4.70839 15.1603 4.48737 15.491 4.33657 15.855C4.18578 16.219 4.10816 16.6092 4.10816 17.0032C4.10816 17.3972 4.18578 17.7874 4.33657 18.1514C4.48737 18.5154 4.70839 18.8461 4.98702 19.1247C5.55864 19.6702 6.3184 19.9745 7.10852 19.9745C7.89864 19.9745 8.6584 19.6702 9.23002 19.1247L19.778 8.5317C20.696 7.59 21.206 6.32455 21.1976 5.00947C21.1892 3.69439 20.663 2.43558 19.733 1.50572C18.803 0.575864 17.5441 0.0498421 16.229 0.0416022C14.914 0.0333622 13.6486 0.543568 12.707 1.4617L2.15802 12.0537C0.845201 13.3665 0.107666 15.1471 0.107666 17.0037C0.107666 18.8603 0.845201 20.6409 2.15802 21.9537C3.47084 23.2665 5.25141 24.0041 7.10802 24.0041C8.96463 24.0041 10.7452 23.2665 12.058 21.9537L22.95 11.0177C23.0435 10.9248 23.1176 10.8143 23.1682 10.6926C23.2188 10.5709 23.2448 10.4405 23.2448 10.3087C23.2448 10.1769 23.2188 10.0464 23.1682 9.92478C23.1176 9.8031 23.0435 9.69263 22.95 9.5997Z" fill="#3F9E37"/>
</g>
<defs>
<clipPath id="clip0_211_3244">
<rect width="24" height="24" fill="white"/>
</clipPath>
</defs>
</svg>
