<svg width="22" height="22" viewBox="0 0 22 22" fill="none" xmlns="http://www.w3.org/2000/svg">
<g clip-path="url(#clip0_237_956)">
<path d="M20.9486 1.05229C20.3254 0.430055 19.4807 0.0805664 18.6001 0.0805664C17.7194 0.0805664 16.8748 0.430055 16.2516 1.05229L1.34293 15.961C0.915994 16.3855 0.577479 16.8905 0.34697 17.4467C0.116462 18.0029 -0.00146481 18.5993 1.37328e-05 19.2014V21.0833C1.37328e-05 21.3264 0.0965909 21.5596 0.268499 21.7315C0.440408 21.9034 0.673565 22 0.91668 22H2.7986C3.40063 22.0017 3.99702 21.8839 4.55324 21.6536C5.10946 21.4232 5.61446 21.0848 6.03901 20.658L20.9486 5.74837C21.5706 5.12522 21.9199 4.28076 21.9199 3.40033C21.9199 2.51991 21.5706 1.67545 20.9486 1.05229ZM4.74285 19.3618C4.22585 19.8754 3.52731 20.1645 2.7986 20.1666H1.83335V19.2014C1.83242 18.8401 1.90316 18.4823 2.04146 18.1485C2.17977 17.8148 2.3829 17.5118 2.6391 17.2571L13.9535 5.94271L16.0618 8.05104L4.74285 19.3618ZM19.6515 4.45221L17.3543 6.75029L15.246 4.64654L17.5441 2.34846C17.6825 2.21032 17.8468 2.10081 18.0276 2.02617C18.2083 1.95152 18.402 1.91322 18.5976 1.91343C18.7932 1.91364 18.9868 1.95237 19.1674 2.02741C19.348 2.10244 19.512 2.21231 19.6501 2.35075C19.7883 2.48918 19.8978 2.65347 19.9724 2.83423C20.0471 3.01499 20.0854 3.20868 20.0852 3.40424C20.085 3.59981 20.0462 3.79342 19.9712 3.97401C19.8962 4.15461 19.7863 4.31866 19.6478 4.45679L19.6515 4.45221Z" fill="var(--icon-color, #3F9E37)"/>
</g>
<defs>
<clipPath id="clip0_237_956">
<rect width="22" height="22" fill="var(--fill-color, white)"/>
</clipPath>
</defs>
</svg>
