<svg width="28" height="28" viewBox="0 0 28 28" fill="none" xmlns="http://www.w3.org/2000/svg">
<g clip-path="url(#clip0_211_3242)">
<path d="M14 28C11.2311 28 8.52431 27.1789 6.22202 25.6406C3.91973 24.1022 2.12532 21.9157 1.06569 19.3576C0.006066 16.7994 -0.271181 13.9845 0.269012 11.2687C0.809205 8.55301 2.14258 6.05845 4.10051 4.10051C6.05845 2.14258 8.55301 0.809205 11.2687 0.269012C13.9845 -0.271181 16.7994 0.006066 19.3576 1.06569C21.9157 2.12532 24.1022 3.91973 25.6406 6.22202C27.1789 8.52431 28 11.2311 28 14C27.996 17.7118 26.5197 21.2704 23.8951 23.8951C21.2704 26.5197 17.7118 27.996 14 28ZM14 2.33334C11.6926 2.33334 9.43693 3.01758 7.51835 4.29953C5.59978 5.58148 4.10443 7.40356 3.22141 9.53537C2.33839 11.6672 2.10735 14.0129 2.55751 16.2761C3.00767 18.5392 4.11881 20.618 5.75043 22.2496C7.38204 23.8812 9.46084 24.9923 11.724 25.4425C13.9871 25.8927 16.3328 25.6616 18.4646 24.7786C20.5965 23.8956 22.4185 22.4002 23.7005 20.4817C24.9824 18.5631 25.6667 16.3075 25.6667 14C25.6633 10.9069 24.433 7.94137 22.2458 5.75418C20.0586 3.56699 17.0932 2.33674 14 2.33334ZM20.6103 18.3703C20.8415 18.1646 20.9814 17.8754 20.9993 17.5665C21.0173 17.2576 20.9118 16.9541 20.706 16.723C20.5002 16.4919 20.2111 16.3519 19.9022 16.334C19.5932 16.3161 19.2898 16.4216 19.0587 16.6273C17.6325 17.8282 15.8603 18.5426 14 18.6667C12.1408 18.5427 10.3696 17.8291 8.94367 16.6297C8.71285 16.4236 8.40961 16.3177 8.10068 16.3352C7.79174 16.3527 7.50241 16.4922 7.29634 16.723C7.09027 16.9538 6.98433 17.2571 7.00183 17.566C7.01934 17.8749 7.15885 18.1643 7.38967 18.3703C9.24218 19.953 11.5666 20.8776 14 21C16.4334 20.8776 18.7578 19.953 20.6103 18.3703ZM7.00001 11.6667C7.00001 12.8333 8.04417 12.8333 9.33334 12.8333C10.6225 12.8333 11.6667 12.8333 11.6667 11.6667C11.6667 11.0478 11.4208 10.4543 10.9833 10.0168C10.5457 9.57917 9.95218 9.33334 9.33334 9.33334C8.7145 9.33334 8.12101 9.57917 7.68342 10.0168C7.24584 10.4543 7.00001 11.0478 7.00001 11.6667ZM16.3333 11.6667C16.3333 12.8333 17.3775 12.8333 18.6667 12.8333C19.9558 12.8333 21 12.8333 21 11.6667C21 11.0478 20.7542 10.4543 20.3166 10.0168C19.879 9.57917 19.2855 9.33334 18.6667 9.33334C18.0478 9.33334 17.4543 9.57917 17.0168 10.0168C16.5792 10.4543 16.3333 11.0478 16.3333 11.6667Z" fill="#3F9E37"/>
</g>
<defs>
<clipPath id="clip0_211_3242">
<rect width="28" height="28" fill="white"/>
</clipPath>
</defs>
</svg>
