<svg width="22" height="22" viewBox="0 0 22 22" fill="none" xmlns="http://www.w3.org/2000/svg">
<g clip-path="url(#clip0_212_675)">
<path d="M21.0833 20.1667H2.75C2.50688 20.1667 2.27373 20.0701 2.10182 19.8982C1.92991 19.7263 1.83333 19.4931 1.83333 19.25V0.916667C1.83333 0.673552 1.73676 0.440394 1.56485 0.268485C1.39294 0.0965771 1.15978 0 0.916667 0C0.673552 0 0.440394 0.0965771 0.268485 0.268485C0.0965771 0.440394 0 0.673552 0 0.916667L0 19.25C0 19.9793 0.289731 20.6788 0.805456 21.1945C1.32118 21.7103 2.02065 22 2.75 22H21.0833C21.3264 22 21.5596 21.9034 21.7315 21.7315C21.9034 21.5596 22 21.3264 22 21.0833C22 20.8402 21.9034 20.6071 21.7315 20.4352C21.5596 20.2632 21.3264 20.1667 21.0833 20.1667Z" fill="var(--icon-color, #3F9E37)"/>
<path d="M13.7497 18.334C13.9928 18.334 14.226 18.2374 14.3979 18.0655C14.5698 17.8936 14.6664 17.6604 14.6664 17.4173V11.0007C14.6664 10.7575 14.5698 10.5244 14.3979 10.3525C14.226 10.1806 13.9928 10.084 13.7497 10.084C13.5066 10.084 13.2734 10.1806 13.1015 10.3525C12.9296 10.5244 12.833 10.7575 12.833 11.0007V17.4173C12.833 17.6604 12.9296 17.8936 13.1015 18.0655C13.2734 18.2374 13.5066 18.334 13.7497 18.334Z" fill="var(--icon-color, #3F9E37)"/>
<path d="M6.41666 18.334C6.65978 18.334 6.89294 18.2374 7.06484 18.0655C7.23675 17.8936 7.33333 17.6604 7.33333 17.4173V11.0007C7.33333 10.7575 7.23675 10.5244 7.06484 10.3525C6.89294 10.1806 6.65978 10.084 6.41666 10.084C6.17355 10.084 5.94039 10.1806 5.76849 10.3525C5.59658 10.5244 5.5 10.7575 5.5 11.0007V17.4173C5.5 17.6604 5.59658 17.8936 5.76849 18.0655C5.94039 18.2374 6.17355 18.334 6.41666 18.334Z" fill="var(--icon-color, #3F9E37)"/>
<path d="M17.4167 18.3333C17.6598 18.3333 17.8929 18.2368 18.0649 18.0648C18.2368 17.8929 18.3333 17.6598 18.3333 17.4167V6.41667C18.3333 6.17355 18.2368 5.94039 18.0649 5.76849C17.8929 5.59658 17.6598 5.5 17.4167 5.5C17.1736 5.5 16.9404 5.59658 16.7685 5.76849C16.5966 5.94039 16.5 6.17355 16.5 6.41667V17.4167C16.5 17.6598 16.5966 17.8929 16.7685 18.0648C16.9404 18.2368 17.1736 18.3333 17.4167 18.3333Z" fill="var(--icon-color, #3F9E37)"/>
<path d="M10.0837 18.3333C10.3268 18.3333 10.5599 18.2368 10.7318 18.0648C10.9038 17.8929 11.0003 17.6598 11.0003 17.4167V6.41667C11.0003 6.17355 10.9038 5.94039 10.7318 5.76849C10.5599 5.59658 10.3268 5.5 10.0837 5.5C9.84055 5.5 9.60739 5.59658 9.43548 5.76849C9.26357 5.94039 9.16699 6.17355 9.16699 6.41667V17.4167C9.16699 17.6598 9.26357 17.8929 9.43548 18.0648C9.60739 18.2368 9.84055 18.3333 10.0837 18.3333Z" fill="var(--icon-color, #3F9E37)"/>
</g>
<defs>
<clipPath id="clip0_212_675">
<rect width="22" height="22" fill="var(--fill-color, white)"/>
</clipPath>
</defs>
</svg>
